# xmcd
#
# Track frame offsets: 
#        150
#        12962
#        24283
#        39540
#        52410
#        62565
#        73147
#        86854
#        95753
#        105440
#        119547
#        129700
#        139199
#        150914
#        160460
#        168664
#        178913
#        192283
#        201605
#        213721
#        223735
#        238053
#        248992
#        267650
#        277725
#        288342
#        299490
#        311855
#
# Disc length: 4303 seconds
#
# Revision: 0
# Processed by: cddbd v1.5.2PL0 Copyright (c) Steve Scherf et al.
# Submitted via: ExactAudioCopy v0.95b3
#
DISCID=c910cd1c
DTITLE=Various  - Psychedelic Sixties French EP Collection CD-1
DYEAR=1900
DGENRE=
TTITLE0=Thirteenth Floor Elevators - Reverberation (doubt)
TTITLE1=Thirteenth Floor Elevators - You're gonna miss me
TTITLE2=Thirteenth Floor Elevators - Fire engine
TTITLE3=Thirteenth Floor Elevators - Tried to hide
TTITLE4=The Seeds (EP1) - No escape
TTITLE5=The Seeds (EP1) - Excuse, excuse
TTITLE6=The Seeds (EP1) - Can't seem to make you
TTITLE7=The Seeds (EP1) - Daisy Mae
TTITLE8=The Five Americans (EP1) - I see the light
TTITLE9=The Five Americans (EP1) - The train
TTITLE10=The Five Americans (EP1) - I'm so glad
TTITLE11=The Five Americans (EP1) - Don't you dare blame me
TTITLE12=The Five Americans (EP2) - Western Union
TTITLE13=The Five Americans (EP2) - Now that it's over
TTITLE14=The Five Americans (EP2) - If i could
TTITLE15=The Five Americans (EP2) - Reality
TTITLE16=The Electric Prunes (EP1) - I had to much to dream last night
TTITLE17=The Electric Prunes (EP1) - Luvin'
TTITLE18=The Electric Prunes (EP1) - Little Oliver
TTITLE19=The Electric Prunes (EP1) - Ain't it hard
TTITLE20=The Electric Prunes (EP2) - Long days flight
TTITLE21=The Electric Prunes (EP2) - Dr Do-Good
TTITLE22=The Electric Prunes (EP2) - The great banana hoax
TTITLE23=The Electric Prunes (EP2) - Capt Golry
TTITLE24=The The People (EP1) - You burn me up and down
TTITLE25=The The People (EP1) - He doesn't go about it right
TTITLE26=The The People (EP1) - Mirror of your mind
TTITLE27=The The People (EP1) - The color of life
EXTD=
EXTT0=
EXTT1=
EXTT2=
EXTT3=
EXTT4=
EXTT5=
EXTT6=
EXTT7=
EXTT8=
EXTT9=
EXTT10=
EXTT11=
EXTT12=
EXTT13=
EXTT14=
EXTT15=
EXTT16=
EXTT17=
EXTT18=
EXTT19=
EXTT20=
EXTT21=
EXTT22=
EXTT23=
EXTT24=
EXTT25=
EXTT26=
EXTT27=
PLAYORDER=
